<svg xmlns="http://www.w3.org/2000/svg" width="83" height="51" viewBox="0 0 83 51">
    <g fill="#9724BA" fill-rule="nonzero">
        <path d="M60.301 16.212L50.844 1.199c-.702-1.098-2.12-1.419-3.18-.692a2.429 2.429 0 0 0-.669 3.293l7.778 12.344H29.221v-5.623c0-1.317-1.027-2.381-2.299-2.381s-2.3 1.064-2.3 2.38v5.624H5.447c-3 0-5.446 2.533-5.446 5.64v15.774c0 3.107 2.446 5.64 5.446 5.64h2.332c1.044 4.39 4.86 7.667 9.425 7.667 4.566 0 8.382-3.276 9.425-7.667h29.613c1.044 4.39 4.86 7.667 9.425 7.667 4.566 0 8.382-3.276 9.425-7.667h5.463c1.272 0 2.3-1.064 2.3-2.381C82.836 27.662 72.84 16.92 60.3 16.212zM4.598 37.558V21.785c0-.49.375-.878.848-.878h25.846c.555 3.934 2.006 12.074 5.088 17.529h-9.768c-1.043-4.391-4.86-7.667-9.425-7.667-4.566 0-8.381 3.276-9.409 7.667H5.446c-.473 0-.848-.389-.848-.878zm12.589 8.545c-2.821 0-5.104-2.365-5.104-5.286 0-2.922 2.283-5.286 5.104-5.286s5.104 2.364 5.104 5.286c0 2.921-2.283 5.286-5.104 5.286zm48.463 0c-2.821 0-5.104-2.365-5.104-5.286 0-2.922 2.283-5.286 5.104-5.286 2.82 0 5.104 2.364 5.104 5.286 0 2.921-2.3 5.286-5.104 5.286zm9.409-7.667c-1.044-4.391-4.86-7.667-9.425-7.667-4.566 0-8.382 3.276-9.426 7.667H42.152c-3.098-2.584-5.267-11.129-6.229-17.53h23.074c9.816 0 17.937 7.668 19.078 17.53H75.06z"/>
        <path d="M46.49 23.119h-4.028c-1.272 0-2.3 1.064-2.3 2.381 0 1.317 1.028 2.381 2.3 2.381h4.028c1.272 0 2.299-1.064 2.299-2.381 0-1.317-1.027-2.381-2.3-2.381z"/>
    </g>
</svg>
