<svg xmlns="http://www.w3.org/2000/svg" xmlns:xlink="http://www.w3.org/1999/xlink" width="48" height="48" viewBox="0 0 48 48">
    <defs>
        <path id="a" d="M24 0c3.313 0 6.43.625 9.352 1.875 2.921 1.25 5.468 2.96 7.64 5.133 2.172 2.172 3.883 4.719 5.133 7.64C47.375 17.57 48 20.688 48 24c0 3.313-.625 6.43-1.875 9.352-1.25 2.921-2.96 5.468-5.133 7.64-2.172 2.172-4.719 3.883-7.64 5.133C30.43 47.375 27.312 48 24 48c-3.313 0-6.43-.625-9.352-1.875-2.921-1.25-5.468-2.96-7.64-5.133-2.172-2.172-3.883-4.719-5.133-7.64C.625 30.43 0 27.312 0 24c0-3.313.625-6.43 1.875-9.352 1.25-2.921 2.96-5.468 5.133-7.64 2.172-2.172 4.719-3.883 7.64-5.133C17.57.625 20.688 0 24 0zm0 45.047c2.906 0 5.633-.555 8.18-1.664 2.547-1.11 4.765-2.617 6.656-4.524 1.89-1.906 3.39-4.132 4.5-6.68C44.446 29.634 45 26.907 45 24c0-2.906-.555-5.633-1.664-8.18-1.11-2.547-2.61-4.765-4.5-6.656-1.89-1.89-4.11-3.39-6.656-4.5C29.633 3.554 26.906 3 24 3c-2.906 0-5.633.555-8.18 1.664-2.547 1.11-4.765 2.61-6.656 4.5-1.89 1.89-3.39 4.11-4.5 6.656C3.554 18.367 3 21.094 3 24c0 2.906.555 5.633 1.664 8.18 1.11 2.547 2.61 4.773 4.5 6.68 1.89 1.906 4.11 3.413 6.656 4.523 2.547 1.11 5.274 1.664 8.18 1.664zm8.484-29.531c.282.28.422.632.422 1.054 0 .422-.14.774-.422 1.055L26.11 24l6.375 6.375c.282.281.422.633.422 1.055 0 .422-.14.773-.422 1.054a1.431 1.431 0 0 1-1.054.422c-.422 0-.774-.14-1.055-.422L24 26.11l-6.375 6.375a1.431 1.431 0 0 1-1.055.422c-.422 0-.773-.14-1.054-.422a1.431 1.431 0 0 1-.422-1.054c0-.422.14-.774.422-1.055L21.89 24l-6.375-6.375a1.431 1.431 0 0 1-.422-1.055c0-.422.14-.773.422-1.054a1.431 1.431 0 0 1 1.054-.422c.422 0 .774.14 1.055.422L24 21.89l6.375-6.375a1.431 1.431 0 0 1 1.055-.422c.422 0 .773.14 1.054.422z"/>
    </defs>
    <g fill="none" fill-rule="evenodd">
        <mask id="b" fill="#fff">
            <use xlink:href="#a"/>
        </mask>
        <use fill="#FFF" xlink:href="#a"/>
        <g fill="#ED2552" mask="url(#b)">
            <path d="M0 0h48v48H0z"/>
        </g>
    </g>
</svg>
