<svg xmlns="http://www.w3.org/2000/svg" width="57" height="58" viewBox="0 0 57 58">
    <g fill="#9724BA" fill-rule="nonzero">
        <path d="M42.75 57.388H0V21.52C0 8.648 8.59 0 21.375 0S42.75 8.648 42.75 21.52v35.868zM2.375 54.996h38V21.52c0-11.62-7.458-19.129-19-19.129s-19 7.509-19 19.13v33.475z"/>
        <path d="M7.231 15.766c-.15 0-.303-.029-.451-.09a1.199 1.199 0 0 1-.646-1.561c1.4-3.422 3.821-6.053 7.002-7.606.59-.288 1.3-.04 1.587.553a1.2 1.2 0 0 1-.55 1.598c-2.686 1.312-4.652 3.453-5.843 6.365-.19.462-.631.741-1.099.741zM57 57.388H41.562a1.192 1.192 0 0 1-1.187-1.196c0-.66.532-1.196 1.188-1.196h13.062V26.11c0-9.277-7.563-16.544-17.219-16.544a1.192 1.192 0 0 1-1.187-1.196c0-.66.532-1.196 1.187-1.196C48.394 7.173 57 15.491 57 26.11v31.279zM30.875 44.834H11.281a1.192 1.192 0 0 1-1.187-1.195c0-.66.532-1.196 1.187-1.196h19.594c.655 0 1.188.536 1.188 1.196 0 .66-.533 1.195-1.188 1.195zM27.313 49.616h-12.47a1.192 1.192 0 0 1-1.187-1.195c0-.66.532-1.196 1.188-1.196h12.469c.655 0 1.187.536 1.187 1.196 0 .66-.532 1.195-1.188 1.195zM25.531 36.465H17.22V25.107h-5.344v-7.173h5.344V13.15h8.312v4.783h5.344v7.173h-5.344v11.358zm-5.937-2.391h3.562V22.716H28.5v-2.391h-5.344v-4.783h-3.562v4.783H14.25v2.39h5.344v11.359z"/>
    </g>
</svg>
