<svg xmlns="http://www.w3.org/2000/svg" width="26" height="20" viewBox="0 0 26 20">
    <g fill="none" fill-rule="evenodd">
        <path fill="#9724BA" fill-rule="nonzero" d="M24.7 15v-.844a1.868 1.868 0 0 0 1.015-1.656v-5c0-.719-.413-1.344-1.015-1.656V5c0-2.75-2.283-5-5.073-5H5.359C2.569 0 .285 2.25.285 5v10c0 2.75 2.283 5 5.074 5h14.268c2.79 0 5.073-2.25 5.073-5zm-2.537-3.125H18.74c-1.046 0-1.902-.844-1.902-1.875 0-1.031.856-1.875 1.902-1.875h3.424v3.75zM2.822 15V5c0-1.375 1.141-2.5 2.537-2.5h14.268c1.395 0 2.536 1.125 2.536 2.5v.625H18.74C16.298 5.625 14.3 7.594 14.3 10c0 2.406 1.998 4.375 4.439 4.375h3.424V15c0 1.375-1.141 2.5-2.536 2.5H5.359c-1.396 0-2.537-1.125-2.537-2.5z"/>
        <path fill="#FFF" d="M21.901 10.168c-.553-.722-1.073-2.043-1.073-2.043h1.684c.664 0 1.208.502 1.264 1.142h.004v1.358c0 .69-.567 1.25-1.268 1.25h-1.481s.29-.979.87-1.707z"/>
    </g>
</svg>
