<svg xmlns="http://www.w3.org/2000/svg" width="15" height="15" viewBox="0 0 15 15">
    <path fill="#9724BA" fill-rule="evenodd" stroke="#9724BA" stroke-width=".8" d="M13.188 2.219c.228 0 .42.078.577.235.157.156.235.349.235.577v10.156c0 .22-.078.411-.235.572a.775.775 0 0 1-.578.241H1.813a.775.775 0 0 1-.578-.241.791.791 0 0 1-.235-.572V3.031c0-.228.078-.42.235-.577a.785.785 0 0 1 .577-.235h3.25v-.813c0-.11.04-.205.121-.285A.39.39 0 0 1 5.47 1c.11 0 .205.04.285.12.08.081.121.176.121.286v.813h3.25v-.813c0-.11.04-.205.12-.285A.39.39 0 0 1 9.532 1c.11 0 .205.04.286.12.08.081.12.176.12.286v.813h3.25zm0 10.969V3.03h-3.25v.406a.39.39 0 0 1-.121.286.39.39 0 0 1-.286.12.39.39 0 0 1-.285-.12.39.39 0 0 1-.121-.285V3.03h-3.25v.406a.39.39 0 0 1-.12.286.39.39 0 0 1-.286.12.39.39 0 0 1-.286-.12.39.39 0 0 1-.12-.285V3.03h-3.25v10.156h11.374zM10.344 7.5a.39.39 0 0 1-.286-.12.39.39 0 0 1-.12-.286V6.28c0-.11.04-.205.12-.285a.39.39 0 0 1 .286-.121h.812c.11 0 .205.04.286.12.08.081.12.176.12.286v.813a.39.39 0 0 1-.12.285.39.39 0 0 1-.286.121h-.812zm0 3.25a.39.39 0 0 1-.286-.12.39.39 0 0 1-.12-.286V9.53c0-.11.04-.205.12-.285a.39.39 0 0 1 .286-.121h.812c.11 0 .205.04.286.12.08.081.12.176.12.286v.813a.39.39 0 0 1-.12.285.39.39 0 0 1-.286.121h-.812zM7.906 9.125c.11 0 .205.04.286.12.08.081.12.176.12.286v.813a.39.39 0 0 1-.12.285.39.39 0 0 1-.286.121h-.812a.39.39 0 0 1-.286-.12.39.39 0 0 1-.12-.286V9.53c0-.11.04-.205.12-.285a.39.39 0 0 1 .286-.121h.812zm0-3.25c.11 0 .205.04.286.12.08.081.12.176.12.286v.813a.39.39 0 0 1-.12.285.39.39 0 0 1-.286.121h-.812a.39.39 0 0 1-.286-.12.39.39 0 0 1-.12-.286V6.28c0-.11.04-.205.12-.285a.39.39 0 0 1 .286-.121h.812zm-3.25 0c.11 0 .205.04.286.12.08.081.12.176.12.286v.813a.39.39 0 0 1-.12.285.39.39 0 0 1-.286.121h-.812a.39.39 0 0 1-.286-.12.39.39 0 0 1-.12-.286V6.28c0-.11.04-.205.12-.285a.39.39 0 0 1 .286-.121h.812zm0 3.25c.11 0 .205.04.286.12.08.081.12.176.12.286v.813a.39.39 0 0 1-.12.285.39.39 0 0 1-.286.121h-.812a.39.39 0 0 1-.286-.12.39.39 0 0 1-.12-.286V9.53c0-.11.04-.205.12-.285a.39.39 0 0 1 .286-.121h.812z"/>
</svg>
