<svg xmlns="http://www.w3.org/2000/svg" xmlns:xlink="http://www.w3.org/1999/xlink" width="49" height="49" viewBox="0 0 49 49">
    <defs>
        <path id="b" d="M15.933.02C15.625.007 15.313 0 15 0c-2.07 0-4.019.297-5.845.89-1.826.593-3.418 1.409-4.775 2.447-1.358 1.038-2.427 2.245-3.208 3.619A8.827 8.827 0 0 0 0 11.391c0 .988.142 1.933.425 2.832.283.9.688 1.75 1.216 2.551a10.63 10.63 0 0 0 1.963 2.21c.78.673 1.67 1.266 2.666 1.78-.025.055-.03.07-.03.09 0 .85-.18 1.695-.542 2.535-.361.84-.678 1.508-.952 2.003a.532.532 0 0 0-.044.148c-.01.06-.014.119-.014.178 0 .237.083.44.249.608a.813.813 0 0 0 .6.252h.234a9.055 9.055 0 0 0 2.212-.727 17.383 17.383 0 0 0 2.037-1.127 16.46 16.46 0 0 0 1.626-1.186c.458-.386.766-.678.922-.875.332.059.62.094.865.103.244.01.503.015.776.015H15c2.07 0 4.019-.296 5.845-.89 1.826-.593 3.418-1.409 4.775-2.447 1.358-1.038 2.427-2.244 3.208-3.619A8.827 8.827 0 0 0 30 11.391c0-1.582-.39-3.06-1.172-4.435-.781-1.374-1.85-2.58-3.208-3.619C24.263 2.3 22.67 1.483 20.845.89A17.552 17.552 0 0 0 19.238.45c-1.243-.358-2.396-.51-3.305-.43z"/>
        <filter id="a" width="133.3%" height="137.6%" x="-13.3%" y="-15%" filterUnits="objectBoundingBox">
            <feOffset dx="1" dy="1" in="SourceAlpha" result="shadowOffsetOuter1"/>
            <feGaussianBlur in="shadowOffsetOuter1" result="shadowBlurOuter1" stdDeviation="1.5"/>
            <feColorMatrix in="shadowBlurOuter1" values="0 0 0 0 0 0 0 0 0 0 0 0 0 0 0 0 0 0 0.182263361 0"/>
        </filter>
    </defs>
    <g fill="none" fill-rule="evenodd">
        <circle cx="24.5" cy="24.5" r="24.5" fill="#9724BA"/>
        <g transform="translate(10 11)">
            <use fill="#000" filter="url(#a)" xlink:href="#b"/>
            <use fill="#FFF" xlink:href="#b"/>
        </g>
    </g>
</svg>
